# xmcd
#
# Track frame offsets:
#	150
#	21468
#	35718
#	53990
#	75031
#	92740
#	108893
#	130273
#	149803
#	176691
#
# Disc length: 2806 seconds
#
# Revision: 1
# Processed by: cddbd v1.5.1PL0 Copyright (c) Steve Scherf et al.
# Submitted via: audiograbber 1.83.01
#
DISCID=860af40a
DTITLE=Ricky Skaggs - Live In London
DYEAR=1985
DGENRE=Bluegrass
TTITLE0=Uncle Pen
TTITLE1=Heartbroke
TTITLE2=She Didn't Say Why
TTITLE3=Cajun Moon
TTITLE4=Country Boy
TTITLE5=I've Got A New Heartache
TTITLE6=You Make Me Fell Like A Man
TTITLE7=Rockin' The Boat
TTITLE8=Honey (Open That Door)
TTITLE9=Don't Get Above Your Raising
EXTD=
EXTT0=
EXTT1=
EXTT2=
EXTT3=
EXTT4=
EXTT5=
EXTT6=
EXTT7=
EXTT8=
EXTT9=
PLAYORDER=
